<?xml version="1.0" encoding="UTF-8"?>
<!DOCTYPE svg PUBLIC "-//W3C//DTD SVG 1.1//EN" "http://www.w3.org/Graphics/SVG/1.1/DTD/svg11.dtd">
<svg xmlns="http://www.w3.org/2000/svg" version="1.1" width="422px" height="108px" style="shape-rendering:geometricPrecision; text-rendering:geometricPrecision; image-rendering:optimizeQuality; fill-rule:evenodd; clip-rule:evenodd" xmlns:xlink="http://www.w3.org/1999/xlink">
<g><path style="opacity:1" fill="#effdf9" d="M -0.5,-0.5 C 140.167,-0.5 280.833,-0.5 421.5,-0.5C 421.5,35.5 421.5,71.5 421.5,107.5C 280.833,107.5 140.167,107.5 -0.5,107.5C -0.5,71.5 -0.5,35.5 -0.5,-0.5 Z"/></g>
<g><path style="opacity:1" fill="#6dbbde" d="M 44.5,11.5 C 60.6601,9.65574 74.4934,14.3224 86,25.5C 86.6667,26.5 86.6667,27.5 86,28.5C 83.3053,30.6944 80.472,32.6944 77.5,34.5C 64.6788,22.15 50.6788,20.4833 35.5,29.5C 34.3384,24.8687 34.1717,20.202 35,15.5C 38.2909,14.2432 41.4576,12.9099 44.5,11.5 Z"/></g>
<g><path style="opacity:1" fill="#6ebbde" d="M 21.5,24.5 C 22.3309,36.9934 22.8309,49.66 23,62.5C 31.7709,82.8016 46.6042,89.3016 67.5,82C 71.2413,80.2621 74.408,77.7621 77,74.5C 80.8359,77.0015 83.8359,80.0015 86,83.5C 66.9775,100.346 46.8109,101.846 25.5,88C 11.1144,74.6283 6.61444,58.4616 12,39.5C 14.2058,33.814 17.3724,28.814 21.5,24.5 Z"/></g>
<g><path style="opacity:1" fill="#f4c64b" d="M 225.5,33.5 C 232.225,33.2044 233.891,35.8711 230.5,41.5C 223.409,42.5305 221.742,39.8639 225.5,33.5 Z"/></g>
<g><path style="opacity:1" fill="#f5c448" d="M 201.5,35.5 C 201.171,41.5368 201.504,47.5368 202.5,53.5C 203.107,53.3764 203.44,53.0431 203.5,52.5C 205.628,49.8697 207.961,47.3697 210.5,45C 213.554,44.1786 216.554,44.3452 219.5,45.5C 216.683,48.8178 213.683,51.9845 210.5,55C 213.876,59.5817 216.876,64.415 219.5,69.5C 216.167,70.8333 212.833,70.8333 209.5,69.5C 207.833,66.8333 206.167,64.1667 204.5,61.5C 203.914,61.7093 203.414,62.0426 203,62.5C 202.503,65.146 202.336,67.8127 202.5,70.5C 199.5,70.5 196.5,70.5 193.5,70.5C 193.5,58.8333 193.5,47.1667 193.5,35.5C 196.167,35.5 198.833,35.5 201.5,35.5 Z"/></g>
<g><path style="opacity:1" fill="#f3dc82" d="M 201.5,35.5 C 202.167,41.1667 202.833,46.8333 203.5,52.5C 203.44,53.0431 203.107,53.3764 202.5,53.5C 201.504,47.5368 201.171,41.5368 201.5,35.5 Z"/></g>
<g><path style="opacity:1" fill="#6dbbde" d="M 48.5,35.5 C 64.9983,35.1638 72.8316,43.1638 72,59.5C 67.9461,69.7759 60.4461,74.2759 49.5,73C 35.5029,67.8686 31.3363,58.3686 37,44.5C 40.1607,40.4905 43.994,37.4905 48.5,35.5 Z"/></g>
<g><path style="opacity:1" fill="#f4c54a" d="M 97.5,37.5 C 104.508,37.3337 111.508,37.5004 118.5,38C 124.554,39.0435 127.054,42.5435 126,48.5C 124.457,50.3783 122.624,51.8783 120.5,53C 127.16,55.4902 128.993,59.9902 126,66.5C 124.2,68.317 122.034,69.4837 119.5,70C 112.174,70.4997 104.841,70.6663 97.5,70.5C 97.5,59.5 97.5,48.5 97.5,37.5 Z"/></g>
<g><path style="opacity:1" fill="#f5c64c" d="M 313.5,36.5 C 320.306,36.244 326.306,38.244 331.5,42.5C 330.299,44.9095 328.633,46.9095 326.5,48.5C 320.535,42.8572 315.035,43.1905 310,49.5C 308.043,56.928 310.709,61.5947 318,63.5C 321.455,63.1286 324.455,61.7952 327,59.5C 328.093,61.3492 329.426,63.0158 331,64.5C 329.071,67.9266 325.904,70.0933 321.5,71C 306.839,72.0052 299.672,65.1719 300,50.5C 302.017,43.3185 306.517,38.6518 313.5,36.5 Z"/></g>
<g><path style="opacity:1" fill="#e7f9f8" d="M 49.5,42.5 C 52.1667,42.5 54.8333,42.5 57.5,42.5C 57.5,45.1667 57.5,47.8333 57.5,50.5C 60.1667,50.5 62.8333,50.5 65.5,50.5C 65.5,53.1667 65.5,55.8333 65.5,58.5C 62.8333,58.5 60.1667,58.5 57.5,58.5C 57.5,61.1667 57.5,63.8333 57.5,66.5C 54.8333,66.5 52.1667,66.5 49.5,66.5C 49.5,63.8333 49.5,61.1667 49.5,58.5C 46.8333,58.5 44.1667,58.5 41.5,58.5C 41.5,55.8333 41.5,53.1667 41.5,50.5C 44.1667,50.5 46.8333,50.5 49.5,50.5C 49.5,47.8333 49.5,45.1667 49.5,42.5 Z"/></g>
<g><path style="opacity:1" fill="#f0fdf8" d="M 106.5,44.5 C 109.518,44.3354 112.518,44.502 115.5,45C 116.833,46.6667 116.833,48.3333 115.5,50C 112.518,50.498 109.518,50.6646 106.5,50.5C 106.5,48.5 106.5,46.5 106.5,44.5 Z"/></g>
<g><path style="opacity:1" fill="#f4c54a" d="M 139.5,44.5 C 152.569,43.0664 158.736,48.7331 158,61.5C 154.029,69.7244 147.529,72.5578 138.5,70C 131.324,66.8159 128.49,61.3159 130,53.5C 131.871,49.0064 135.038,46.0064 139.5,44.5 Z"/></g>
<g><path style="opacity:1" fill="#f5c54c" d="M 170.5,44.5 C 183.004,43.5092 189.17,49.1759 189,61.5C 187.402,66.0986 184.235,68.9319 179.5,70C 165.671,72.8311 159.504,67.3311 161,53.5C 162.775,48.888 165.942,45.888 170.5,44.5 Z"/></g>
<g><path style="opacity:1" fill="#f2df8d" d="M 238.5,45.5 C 241.287,44.5233 244.287,44.19 247.5,44.5C 247.5,45.8333 247.5,47.1667 247.5,48.5C 246.596,47.791 246.263,46.791 246.5,45.5C 243.833,45.5 241.167,45.5 238.5,45.5 Z"/></g>
<g><path style="opacity:1" fill="#f5c449" d="M 238.5,45.5 C 241.167,45.5 243.833,45.5 246.5,45.5C 246.263,46.791 246.596,47.791 247.5,48.5C 252.217,43.6023 257.384,43.2689 263,47.5C 263.419,48.6721 264.085,49.6721 265,50.5C 265.5,57.1583 265.666,63.825 265.5,70.5C 262.5,70.5 259.5,70.5 256.5,70.5C 256.666,65.1563 256.499,59.8229 256,54.5C 253.333,51.8333 250.667,51.8333 248,54.5C 247.501,59.8229 247.334,65.1563 247.5,70.5C 244.5,70.5 241.5,70.5 238.5,70.5C 238.5,62.1667 238.5,53.8333 238.5,45.5 Z"/></g>
<g><path style="opacity:1" fill="#f5c346" d="M 223.5,45.5 C 226.167,45.5 228.833,45.5 231.5,45.5C 231.5,53.8333 231.5,62.1667 231.5,70.5C 228.833,70.5 226.167,70.5 223.5,70.5C 223.5,62.1667 223.5,53.8333 223.5,45.5 Z"/></g>
<g><path style="opacity:1" fill="#f3d772" d="M 223.5,45.5 C 226.287,44.5233 229.287,44.19 232.5,44.5C 232.826,53.3494 232.493,62.0161 231.5,70.5C 231.5,62.1667 231.5,53.8333 231.5,45.5C 228.833,45.5 226.167,45.5 223.5,45.5 Z"/></g>
<g><path style="opacity:1" fill="#f5c54b" d="M 287.5,45.5 C 290.167,45.5 292.833,45.5 295.5,45.5C 295.5,54.1667 295.5,62.8333 295.5,71.5C 294.073,76.4051 290.739,79.2384 285.5,80C 280.597,80.9369 275.93,80.2702 271.5,78C 270.208,75.0747 271.042,72.9081 274,71.5C 277.238,73.4266 280.738,73.9266 284.5,73C 287.087,71.4749 287.92,69.3083 287,66.5C 276.447,72.306 270.28,69.1393 268.5,57C 269.543,48.6156 274.21,44.6156 282.5,45C 284.329,45.2735 285.829,46.1068 287,47.5C 287.464,46.9056 287.631,46.2389 287.5,45.5 Z"/></g>
<g><path style="opacity:1" fill="#f2dc83" d="M 287.5,45.5 C 290.287,44.5233 293.287,44.19 296.5,44.5C 296.827,53.6822 296.493,62.6822 295.5,71.5C 295.5,62.8333 295.5,54.1667 295.5,45.5C 292.833,45.5 290.167,45.5 287.5,45.5 Z"/></g>
<g><path style="opacity:1" fill="#f5c54a" d="M 358.5,70.5 C 355.212,70.927 352.212,70.2603 349.5,68.5C 348.893,68.6236 348.56,68.9569 348.5,69.5C 344.587,70.5958 340.587,70.7625 336.5,70C 332.5,65.6667 332.5,61.3333 336.5,57C 340.7,55.6326 345.033,55.1326 349.5,55.5C 349.67,54.1779 349.337,53.0113 348.5,52C 344.628,51.1088 340.962,51.6088 337.5,53.5C 336.594,51.6136 335.594,49.7803 334.5,48C 339.702,44.7342 345.369,43.7342 351.5,45C 353.587,45.7922 355.421,46.9588 357,48.5C 358.429,55.7194 358.929,63.0528 358.5,70.5 Z"/></g>
<g><path style="opacity:1" fill="#f2e399" d="M 372.5,45.5 C 369.833,45.5 367.167,45.5 364.5,45.5C 364.5,53.8333 364.5,62.1667 364.5,70.5C 363.507,62.0161 363.174,53.3494 363.5,44.5C 366.713,44.19 369.713,44.5233 372.5,45.5 Z"/></g>
<g><path style="opacity:1" fill="#f4c448" d="M 364.5,70.5 C 364.5,62.1667 364.5,53.8333 364.5,45.5C 367.167,45.5 369.833,45.5 372.5,45.5C 372.351,46.552 372.517,47.552 373,48.5C 375.141,45.6792 377.975,44.3459 381.5,44.5C 381.5,47.1667 381.5,49.8333 381.5,52.5C 378.728,52.22 376.228,52.8866 374,54.5C 372.603,59.7081 372.103,65.0414 372.5,70.5C 369.833,70.5 367.167,70.5 364.5,70.5 Z"/></g>
<g><path style="opacity:1" fill="#f5c64d" d="M 392.5,44.5 C 404.032,43.7007 409.699,49.034 409.5,60.5C 403.491,60.3338 397.491,60.5005 391.5,61C 392.907,63.2517 394.907,64.4184 397.5,64.5C 399.823,63.6239 402.157,63.1239 404.5,63C 408.652,66.4057 407.986,68.739 402.5,70C 388.366,73.2111 381.866,67.7111 383,53.5C 384.775,48.888 387.942,45.888 392.5,44.5 Z"/></g>
<g><path style="opacity:1" fill="#f0fcf3" d="M 141.5,51.5 C 149.579,52.0904 151.579,55.9237 147.5,63C 140.24,65.0765 137.407,62.2432 139,54.5C 140.045,53.6266 140.878,52.6266 141.5,51.5 Z"/></g>
<g><path style="opacity:1" fill="#f0fdf6" d="M 279.5,51.5 C 287.314,51.6247 289.314,55.1247 285.5,62C 278.495,63.3236 275.995,60.4902 278,53.5C 278.717,52.9558 279.217,52.2891 279.5,51.5 Z"/></g>
<g><path style="opacity:1" fill="#f0fcf5" d="M 394.5,50.5 C 398.192,50.3243 400.192,51.9909 400.5,55.5C 397.428,55.8174 394.428,55.4841 391.5,54.5C 392.524,53.1482 393.524,51.8149 394.5,50.5 Z"/></g>
<g><path style="opacity:1" fill="#f0fcf4" d="M 172.5,51.5 C 178.765,51.3634 181.265,54.3634 180,60.5C 176.952,64.0095 173.619,64.3428 170,61.5C 168.861,57.5789 169.695,54.2456 172.5,51.5 Z"/></g>
<g><path style="opacity:1" fill="#f0fdf9" d="M 106.5,57.5 C 109.85,57.335 113.183,57.5017 116.5,58C 117.833,59.6667 117.833,61.3333 116.5,63C 113.183,63.4983 109.85,63.665 106.5,63.5C 106.5,61.5 106.5,59.5 106.5,57.5 Z"/></g>
<g><path style="opacity:1" fill="#f2e9ae" d="M 342.5,60.5 C 344.948,59.5269 347.615,59.1936 350.5,59.5C 350.737,60.791 350.404,61.791 349.5,62.5C 347.721,60.6565 345.388,59.9898 342.5,60.5 Z"/></g>
<g><path style="opacity:1" fill="#f0fbef" d="M 342.5,60.5 C 345.388,59.9898 347.721,60.6565 349.5,62.5C 346.822,66.4959 344.155,66.4959 341.5,62.5C 341.543,61.5836 341.876,60.9169 342.5,60.5 Z"/></g>
<g><path style="opacity:1" fill="#f2eebe" d="M 348.5,69.5 C 348.56,68.9569 348.893,68.6236 349.5,68.5C 352.212,70.2603 355.212,70.927 358.5,70.5C 355.021,71.99 351.688,71.6567 348.5,69.5 Z"/></g>
</svg>
